<svg xmlns="http://www.w3.org/2000/svg" viewBox="0 0 298.38 73.76"><defs><style>.cls-1{fill:#75bc21;}.cls-2{fill:#75bb43;}</style></defs><title>ThriveLife-Logo_Tag</title><g id="Layer_2" data-name="Layer 2"><g id="Layer_1-2" data-name="Layer 1"><path class="cls-1" d="M11.37,69.22a1.1,1.1,0,0,1-.45-.88A1.07,1.07,0,0,1,12,67.27a1.1,1.1,0,0,1,.68.21,5.66,5.66,0,0,0,3.66,1.35c1.43,0,2.32-.68,2.32-1.65v0c0-.93-.52-1.44-2.95-2-2.79-.67-4.36-1.5-4.36-3.91v0c0-2.24,1.87-3.79,4.47-3.79A7.23,7.23,0,0,1,20,58.61a1,1,0,0,1,.51.92,1.07,1.07,0,0,1-1.09,1.06,1.15,1.15,0,0,1-.6-.16,5.41,5.41,0,0,0-3-1c-1.34,0-2.13.7-2.13,1.56v0c0,1,.6,1.46,3.12,2.06,2.77.68,4.19,1.67,4.19,3.84v0c0,2.45-1.92,3.91-4.67,3.91A8.18,8.18,0,0,1,11.37,69.22Z"/><path class="cls-1" d="M23.38,58.14A1.16,1.16,0,0,1,24.67,57,1.16,1.16,0,0,1,26,58.14v.12a1.3,1.3,0,0,1-2.58,0Zm.17,3.69a1.11,1.11,0,0,1,1.12-1.14,1.13,1.13,0,0,1,1.14,1.14v7.82a1.13,1.13,0,0,1-2.26,0Z"/><path class="cls-1" d="M28.77,61.83a1.11,1.11,0,0,1,1.12-1.14A1.13,1.13,0,0,1,31,61.83v.47a3.54,3.54,0,0,1,3-1.71,3.16,3.16,0,0,1,3,1.74,4,4,0,0,1,3.33-1.74c2.15,0,3.46,1.37,3.46,3.78v5.28a1.1,1.1,0,0,1-1.13,1.12,1.12,1.12,0,0,1-1.14-1.12V65.07c0-1.58-.73-2.42-2-2.42s-2.11.86-2.11,2.45v4.55a1.14,1.14,0,0,1-2.27,0v-4.6c0-1.54-.74-2.4-2-2.4A2.16,2.16,0,0,0,31,65.1v4.55a1.13,1.13,0,0,1-2.26,0Z"/><path class="cls-1" d="M46.54,61.83a1.11,1.11,0,0,1,1.12-1.14,1.13,1.13,0,0,1,1.14,1.14v.62a4,4,0,0,1,3.37-1.86c2.32,0,4.58,1.84,4.58,5.13v0c0,3.27-2.24,5.12-4.58,5.12a4,4,0,0,1-3.37-1.74v3.5a1.13,1.13,0,0,1-2.26,0Zm7.91,3.93v0a2.92,2.92,0,0,0-2.83-3.16,3,3,0,0,0-2.88,3.16v0a3,3,0,0,0,2.88,3.16A2.89,2.89,0,0,0,54.45,65.76Z"/><path class="cls-1" d="M59.22,58.05a1.13,1.13,0,0,1,2.26,0v11.6a1.13,1.13,0,0,1-2.26,0Z"/><path class="cls-1" d="M69,70.9a4.92,4.92,0,0,1-5.06-5.12v0a4.9,4.9,0,0,1,4.82-5.15,4.68,4.68,0,0,1,4.7,4.87,1.06,1.06,0,0,1-1.07,1.08H66.16A2.75,2.75,0,0,0,69,69.05a3.57,3.57,0,0,0,2.34-.86.86.86,0,0,1,.58-.21.89.89,0,0,1,.9.92,1,1,0,0,1-.3.69A5.05,5.05,0,0,1,69,70.9Zm2.25-5.85a2.56,2.56,0,0,0-2.51-2.6,2.67,2.67,0,0,0-2.56,2.6Z"/><path class="cls-1" d="M76.65,68A1.27,1.27,0,0,1,78,69.29v.19a1.32,1.32,0,0,1-2.64,0v-.19A1.28,1.28,0,0,1,76.65,68Z"/><path class="cls-1" d="M85.87,64.17v0a6.63,6.63,0,0,1,6.76-6.77,6.86,6.86,0,0,1,4.49,1.48,1.14,1.14,0,0,1,.45.91,1.12,1.12,0,0,1-1.14,1.13,1.16,1.16,0,0,1-.7-.23,4.73,4.73,0,0,0-3.12-1.18,4.41,4.41,0,0,0-4.32,4.62v0a4.41,4.41,0,0,0,4.32,4.64,4.7,4.7,0,0,0,3.27-1.25,1.06,1.06,0,0,1,.7-.27,1.08,1.08,0,0,1,.71,1.89,6.69,6.69,0,0,1-4.76,1.76A6.59,6.59,0,0,1,85.87,64.17Z"/><path class="cls-1" d="M100.13,58.05a1.13,1.13,0,0,1,2.26,0v11.6a1.13,1.13,0,0,1-2.26,0Z"/><path class="cls-1" d="M109.88,70.9a4.92,4.92,0,0,1-5.07-5.12v0a4.9,4.9,0,0,1,4.82-5.15,4.68,4.68,0,0,1,4.7,4.87,1.06,1.06,0,0,1-1.07,1.08h-6.19a2.75,2.75,0,0,0,2.84,2.51,3.57,3.57,0,0,0,2.34-.86.86.86,0,0,1,.58-.21.89.89,0,0,1,.9.92,1,1,0,0,1-.3.69A5,5,0,0,1,109.88,70.9Zm2.24-5.85a2.56,2.56,0,0,0-2.51-2.6,2.67,2.67,0,0,0-2.56,2.6Z"/><path class="cls-1" d="M116,67.83v0c0-2.14,1.67-3.18,4.08-3.18a8.4,8.4,0,0,1,2.66.41v-.24c0-1.41-.86-2.16-2.45-2.16a5.71,5.71,0,0,0-2.19.4,1.63,1.63,0,0,1-.36,0,.94.94,0,0,1-1-.93,1,1,0,0,1,.62-.9,8.32,8.32,0,0,1,3.18-.58,4.43,4.43,0,0,1,3.27,1.1,4.1,4.1,0,0,1,1.07,3v4.87a1.08,1.08,0,0,1-1.11,1.08,1,1,0,0,1-1.1-1v-.38a4,4,0,0,1-3.22,1.44C117.64,70.88,116,69.82,116,67.83Zm6.77-.71v-.67a6.34,6.34,0,0,0-2.24-.39c-1.46,0-2.32.61-2.32,1.64v0c0,1,.84,1.5,1.93,1.5C121.62,69.24,122.76,68.38,122.76,67.12Z"/><path class="cls-1" d="M127.63,61.83a1.11,1.11,0,0,1,1.12-1.14,1.13,1.13,0,0,1,1.14,1.14v.49A3.58,3.58,0,0,1,133,60.59c2.22,0,3.51,1.5,3.51,3.78v5.28a1.09,1.09,0,0,1-1.12,1.12,1.12,1.12,0,0,1-1.14-1.12V65.07c0-1.54-.77-2.42-2.11-2.42a2.2,2.2,0,0,0-2.23,2.45v4.55a1.13,1.13,0,0,1-2.26,0Z"/><path class="cls-1" d="M140.33,68a1.27,1.27,0,0,1,1.31,1.29v.19a1.32,1.32,0,0,1-2.64,0v-.19A1.28,1.28,0,0,1,140.33,68Z"/><path class="cls-1" d="M150.13,58.74a1.14,1.14,0,0,1,1.16-1.16h7.63a1.05,1.05,0,1,1,0,2.1h-6.49v3.57h5.65a1,1,0,0,1,0,2.1h-5.65v4.28a1.15,1.15,0,0,1-2.3,0Z"/><path class="cls-1" d="M161.32,65.79v0a5.27,5.27,0,0,1,10.53,0v0a5.17,5.17,0,0,1-5.3,5.14A5.1,5.1,0,0,1,161.32,65.79Zm8.26,0v0a3.05,3.05,0,0,0-3-3.18,3,3,0,0,0-3,3.14v0a3,3,0,0,0,3,3.16A3,3,0,0,0,169.58,65.79Z"/><path class="cls-1" d="M173.61,65.79v0a5.27,5.27,0,0,1,10.53,0v0a5.17,5.17,0,0,1-5.3,5.14A5.1,5.1,0,0,1,173.61,65.79Zm8.27,0v0a3.06,3.06,0,0,0-3-3.18,3,3,0,0,0-3,3.14v0a3,3,0,0,0,3,3.16A3,3,0,0,0,181.88,65.79Z"/><path class="cls-1" d="M196.15,69.65a1.14,1.14,0,0,1-2.27,0V69a3.92,3.92,0,0,1-3.36,1.85c-2.32,0-4.59-1.85-4.59-5.12v0c0-3.27,2.23-5.13,4.59-5.13a4,4,0,0,1,3.36,1.74V58.05a1.14,1.14,0,0,1,2.27,0Zm-7.93-3.93v0a2.94,2.94,0,0,0,2.84,3.16,3,3,0,0,0,2.86-3.16v0a3,3,0,0,0-2.86-3.16A2.9,2.9,0,0,0,188.22,65.72Z"/><path class="cls-1" d="M200.09,68a1.27,1.27,0,0,1,1.31,1.29v.19a1.32,1.32,0,0,1-2.63,0v-.19A1.28,1.28,0,0,1,200.09,68Z"/><path class="cls-2" d="M257.53,12.33h-15a2.24,2.24,0,0,0-2.27,2.28V36a2.26,2.26,0,0,0,4.52,0V27.59h11.1a2.06,2.06,0,1,0,0-4.11h-11.1v-7h12.76a2.06,2.06,0,0,0,0-4.12"/><path class="cls-2" d="M223.25,12.15A2.23,2.23,0,0,0,221,14.39V36a2.26,2.26,0,0,0,4.52,0V14.39a2.22,2.22,0,0,0-2.24-2.24"/><path class="cls-2" d="M208.13,34H196.48V14.4a2.26,2.26,0,0,0-4.52,0V35.79a2.24,2.24,0,0,0,2.27,2.28h13.9a2.06,2.06,0,1,0,0-4.12"/><path class="cls-2" d="M287.31,34H274.4V27.11h11.07a2,2,0,0,0,2-2,2,2,0,0,0-2-2.06H274.4V16.38h12.72a2,2,0,0,0,2-2,2,2,0,0,0-2-2h-15a2.24,2.24,0,0,0-2.28,2.28V35.79a2.24,2.24,0,0,0,2.28,2.28h15.15a2,2,0,0,0,2-2,2,2,0,0,0-2-2"/><path class="cls-2" d="M57.21,12.05A2.24,2.24,0,0,0,55,14.3v8.64H42.69V14.3a2.26,2.26,0,0,0-4.52,0V35.92a2.26,2.26,0,0,0,4.52,0V27.14H55v8.78a2.27,2.27,0,0,0,4.53,0V14.3a2.25,2.25,0,0,0-2.29-2.25"/><path class="cls-2" d="M105.78,38.16A2.23,2.23,0,0,0,108,35.92V14.3a2.26,2.26,0,0,0-4.52,0V35.92a2.24,2.24,0,0,0,2.28,2.24"/><path class="cls-2" d="M169.84,33.93H156.93V27H168a2,2,0,0,0,2-2A2,2,0,0,0,168,23H156.93v-6.7h12.72a2,2,0,0,0,2-2,2,2,0,0,0-2-2h-15a2.25,2.25,0,0,0-2.28,2.28V35.69A2.25,2.25,0,0,0,154.69,38h15.15a2,2,0,0,0,0-4"/><path class="cls-2" d="M139.87,12.05a2.35,2.35,0,0,0-2.17,1.48l-7.53,18.71-7.43-18.57a2.38,2.38,0,0,0-2.32-1.62,2.24,2.24,0,0,0-2.28,2.21,2.48,2.48,0,0,0,.26,1.07l9,21.18A2.68,2.68,0,0,0,130,38.34h.26a2.7,2.7,0,0,0,2.61-1.83l9.05-21.33a2.6,2.6,0,0,0,.22-.95,2.2,2.2,0,0,0-2.25-2.18"/><path class="cls-2" d="M91.53,36.06a2.59,2.59,0,0,0-.74-1.72l-4.93-6.22c3.46-1.06,5.85-3.56,5.85-7.68v-.08a7.75,7.75,0,0,0-2.14-5.54,10.3,10.3,0,0,0-7.42-2.58H73a2.24,2.24,0,0,0-2.28,2.28v21.4a2.26,2.26,0,0,0,4.52,0V29h5.7l6.25,8a2.59,2.59,0,0,0,2.2,1.17,2.14,2.14,0,0,0,2.18-2.1M81.82,25H75.2V16.36h6.58c3.35,0,5.33,1.5,5.33,4.26v.08c0,2.61-2.06,4.3-5.29,4.3"/><path class="cls-2" d="M27.89,11.93H20.78V16.6h7.11a2.34,2.34,0,1,0,0-4.67"/><path class="cls-2" d="M16.78,10.68C16.78,5.52,13.12,0,2.86,0,2.42,0,.23.13.23.13L.05,2.06C0,2.35-.58,9.3,3.3,13.55a10,10,0,0,0,7.78,3.2h1.19l0,18.94a2.25,2.25,0,0,0,4.49,0ZM6.64,10.53C5.21,9,4.69,6.46,4.55,4.57c6.93.54,7.72,4.38,7.72,6.11v1.55H11.08a5.68,5.68,0,0,1-4.44-1.7"/><path class="cls-2" d="M293.1,13.56h-.74a.27.27,0,0,1-.26-.27.27.27,0,0,1,.26-.27h2.07a.27.27,0,0,1,.26.27.27.27,0,0,1-.26.27h-.74v2.29a.3.3,0,0,1-.59,0Zm2.19-.28a.29.29,0,0,1,.29-.29h.07a.31.31,0,0,1,.27.15l.92,1.47.94-1.47A.28.28,0,0,1,298,13h.07a.29.29,0,0,1,.27.29v2.58a.28.28,0,0,1-.56,0v-1.8l-.73,1.12a.28.28,0,0,1-.25.15.29.29,0,0,1-.25-.15l-.73-1.11v1.79a.29.29,0,0,1-.57,0Z"/></g></g></svg>